<svg preserveAspectRatio="none" overflow="visible" style="display: block;" width="16" height="16" viewBox="0 0 16 16" fill="none" xmlns="http://www.w3.org/2000/svg">
<g id="Ic&#195;&#180;ne / mic">
<path id="Vector" d="M10 3.33333C10 2.22876 9.10457 1.33333 8 1.33333C6.89543 1.33333 6 2.22876 6 3.33333V7.33333C6 8.4379 6.89543 9.33333 8 9.33333C9.10457 9.33333 10 8.4379 10 7.33333V3.33333Z" stroke="#9AA9BF" stroke-width="1.13333" stroke-linecap="round" stroke-linejoin="round"/>
<path id="Vector_2" d="M12.6667 6.66667V8C12.6667 9.23768 12.175 10.4247 11.2998 11.2998C10.4247 12.175 9.23768 12.6667 8 12.6667C6.76232 12.6667 5.57534 12.175 4.70017 11.2998C3.825 10.4247 3.33333 9.23768 3.33333 8V6.66667M8 12.6667V14.6667M5.33333 14.6667H10.6667" stroke="#9AA9BF" stroke-width="1.13333" stroke-linecap="round" stroke-linejoin="round"/>
</g>
</svg>
